<svg width="1146" height="287" viewBox="0 0 1146 287" fill="none" xmlns="http://www.w3.org/2000/svg">
<mask id="mask0_1880_19812" style="mask-type:luminance" maskUnits="userSpaceOnUse" x="-20" y="-348" width="1193" height="796">
<path d="M1173 -348H-20V447.333H1173V-348Z" fill="white"/>
</mask>
<g mask="url(#mask0_1880_19812)">
<path d="M1173 -348H-20V447.333H1173V-348Z" fill="#FBF2EF"/>
<path d="M1386.1 50.5893H1039.69C1037.36 50.5851 1035.12 49.6565 1033.48 48.0073C1031.83 46.3581 1030.91 44.1232 1030.91 41.793C1030.91 39.4642 1031.83 37.2309 1033.48 35.5842C1035.12 33.9376 1037.36 33.0125 1039.69 33.0125H1386.1C1388.43 33.0124 1390.67 33.9371 1392.32 35.5833C1393.96 37.2295 1394.89 39.4628 1394.9 41.793C1394.89 44.1246 1393.97 46.3596 1392.32 48.0083C1390.67 49.657 1388.43 50.5851 1386.1 50.5893Z" fill="white"/>
<path d="M1848.79 151.11H889.499C884.517 151.11 879.739 149.133 876.213 145.614C872.687 142.094 870.701 137.319 870.692 132.337C870.692 127.349 872.674 122.566 876.201 119.039C879.728 115.512 884.511 113.53 889.499 113.53H1848.79C1851.26 113.53 1853.7 114.017 1855.98 114.963C1858.26 115.908 1860.33 117.294 1862.08 119.041C1863.82 120.788 1865.2 122.861 1866.14 125.143C1867.09 127.424 1867.57 129.869 1867.56 132.337C1867.56 137.316 1865.59 142.091 1862.07 145.612C1858.54 149.132 1853.77 151.11 1848.79 151.11Z" fill="url(#paint0_linear_1880_19812)" fill-opacity="0.9"/>
<path d="M160.476 261.577H-288.204C-290.534 261.577 -292.769 260.652 -294.418 259.006C-296.067 257.36 -296.996 255.127 -297 252.796C-297 250.463 -296.073 248.226 -294.424 246.576C-292.774 244.927 -290.537 244 -288.204 244H160.476C161.63 244 162.773 244.228 163.84 244.67C164.906 245.112 165.875 245.76 166.69 246.577C167.506 247.394 168.152 248.364 168.592 249.431C169.033 250.499 169.258 251.642 169.256 252.796C169.256 255.125 168.331 257.358 166.685 259.005C165.038 260.652 162.805 261.577 160.476 261.577Z" fill="url(#paint1_linear_1880_19812)" fill-opacity="0.1"/>
<path d="M1293.25 574.206C1363.32 504.135 1363.32 390.528 1293.25 320.458C1223.18 250.387 1109.57 250.387 1039.5 320.458C969.429 390.528 969.429 504.135 1039.5 574.206C1109.57 644.277 1223.18 644.277 1293.25 574.206Z" stroke="white" stroke-width="2" stroke-miterlimit="10"/>
<path d="M1177.64 431.36C1228.05 380.955 1228.05 299.232 1177.64 248.826C1127.23 198.421 1045.51 198.421 995.106 248.826C944.701 299.232 944.701 380.955 995.106 431.36C1045.51 481.765 1127.23 481.766 1177.64 431.36Z" stroke="url(#paint2_linear_1880_19812)" stroke-opacity="0.9" stroke-width="52" stroke-miterlimit="10"/>
<path d="M974.573 160.266C984.498 100.441 944.047 43.897 884.221 33.9715C824.396 24.0461 767.852 64.4978 757.927 124.323C748.001 184.148 788.453 240.692 848.278 250.618C908.103 260.543 964.647 220.091 974.573 160.266Z" stroke="white" stroke-width="2" stroke-miterlimit="10"/>
<path d="M149.639 76.7596C159.435 34.3284 132.979 -8.0101 90.5481 -17.8061C48.1169 -27.6021 5.77837 -1.14609 -4.01764 41.2851C-13.8136 83.7163 12.6424 126.055 55.0736 135.851C97.5047 145.647 139.843 119.191 149.639 76.7596Z" stroke="white" stroke-width="2" stroke-miterlimit="10"/>
<path d="M990.871 -0.683895C995.43 -19.9083 983.541 -39.1881 964.316 -43.7464C945.092 -48.3048 925.812 -36.4156 921.254 -17.1912C916.695 2.03322 928.584 21.313 947.809 25.8713C967.033 30.4297 986.313 18.5405 990.871 -0.683895Z" fill="url(#paint3_linear_1880_19812)" fill-opacity="0.9"/>
<path d="M1393.04 77.54H714.796C712.466 77.54 710.231 76.6155 708.582 74.9693C706.933 73.3231 706.004 71.0897 706 68.7595C706.004 66.4293 706.933 64.1961 708.582 62.5499C710.231 60.9037 712.466 59.979 714.796 59.979H1393.04C1395.37 59.979 1397.61 60.9037 1399.26 62.5499C1400.9 64.1961 1401.83 66.4293 1401.84 68.7595C1401.83 71.0897 1400.9 73.3231 1399.26 74.9693C1397.61 76.6155 1395.37 77.54 1393.04 77.54Z" fill="white"/>
</g>
<path d="M26.196 192.577H-320.219C-322.55 192.573 -324.783 191.644 -326.429 189.995C-328.075 188.346 -329 186.111 -329 183.781C-329 181.452 -328.075 179.218 -326.428 177.572C-324.782 175.925 -322.548 175 -320.219 175H26.196C28.5261 175 30.7611 175.925 32.4102 177.571C34.0594 179.217 34.988 181.45 34.9922 183.781C34.988 186.112 34.06 188.347 32.4112 189.996C30.7625 191.645 28.5276 192.573 26.196 192.577Z" fill="white"/>
<defs>
<linearGradient id="paint0_linear_1880_19812" x1="870.692" y1="113.53" x2="879.221" y2="233.521" gradientUnits="userSpaceOnUse">
<stop stop-color="#2B4ABE"/>
<stop offset="1" stop-color="#2EA95F"/>
</linearGradient>
<linearGradient id="paint1_linear_1880_19812" x1="-297" y1="244" x2="-293.011" y2="300.122" gradientUnits="userSpaceOnUse">
<stop stop-color="#2B4ABE"/>
<stop offset="1" stop-color="#2EA95F"/>
</linearGradient>
<linearGradient id="paint2_linear_1880_19812" x1="903.839" y1="340.093" x2="1274.91" y2="226.225" gradientUnits="userSpaceOnUse">
<stop stop-color="#2B4ABE"/>
<stop offset="1" stop-color="#2EA95F"/>
</linearGradient>
<linearGradient id="paint3_linear_1880_19812" x1="913" y1="17.6177" x2="983.976" y2="-63.2297" gradientUnits="userSpaceOnUse">
<stop stop-color="#2B4ABE"/>
<stop offset="1" stop-color="#2EA95F"/>
</linearGradient>
</defs>
</svg>
