<svg width="112" height="148" viewBox="0 0 112 148" fill="none" xmlns="http://www.w3.org/2000/svg">
<path fill-rule="evenodd" clip-rule="evenodd" d="M105.043 55.8164H13.1213C11.1437 55.8164 9.24813 56.6015 7.84943 58.0002C6.45321 59.3964 5.66815 61.292 5.66815 63.2695V78.1758H105.043V55.8164Z" fill="url(#paint0_linear_91_4471)"/>
<path fill-rule="evenodd" clip-rule="evenodd" d="M5.66815 64.9736H105.043V69.602H5.66815V64.9736Z" fill="#1C2298"/>
<path fill-rule="evenodd" clip-rule="evenodd" d="M105.044 53.5283C105.044 51.5532 104.259 49.6577 102.86 48.259C101.462 46.8627 99.5662 46.0752 97.5911 46.0752C88.6946 46.0752 74.0392 46.0752 66.1936 46.0752C62.9962 46.0752 60.1566 48.1149 59.133 51.1433C57.697 55.3991 55.876 60.7852 55.876 60.7852H105.044V53.5283Z" fill="url(#paint1_linear_91_4471)"/>
<path fill-rule="evenodd" clip-rule="evenodd" d="M111.225 79.7086C111.673 76.8417 110.843 73.92 108.955 71.7139C107.066 69.5078 104.309 68.2383 101.405 68.2383C79.4899 68.2383 32.262 68.2383 10.3473 68.2383C7.44305 68.2383 4.6854 69.5078 2.79727 71.7139C0.909146 73.92 0.0793632 76.8417 0.526551 79.7086C3.05564 95.8869 7.60702 125.019 9.84296 139.334C10.6007 144.173 14.767 147.738 19.6637 147.738H92.0882C96.9849 147.738 101.151 144.173 101.909 139.334C104.145 125.019 108.696 95.8869 111.225 79.7086Z" fill="url(#paint2_linear_91_4471)"/>
<path fill-rule="evenodd" clip-rule="evenodd" d="M0.526551 79.7086L1.80104 87.8574C1.35136 84.9879 2.33766 82.0663 4.22579 79.8602C6.11391 77.6541 8.87157 76.3845 11.7758 76.3845H99.9761C102.88 76.3845 105.638 77.6541 107.526 79.8602C109.414 82.0663 110.401 84.9879 109.951 87.8574L111.225 79.7086C111.673 76.8417 110.843 73.92 108.955 71.7139C107.066 69.5078 104.309 68.2383 101.405 68.2383C79.4899 68.2383 32.262 68.2383 10.3473 68.2383C7.44305 68.2383 4.6854 69.5078 2.79727 71.7139C0.909146 73.92 0.0793632 76.8417 0.526551 79.7086Z" fill="#C1C4FF"/>
<path fill-rule="evenodd" clip-rule="evenodd" d="M50.1992 127.483C50.1992 124.741 47.9756 122.515 45.2304 122.515C39.7176 122.515 30.8707 122.515 25.3554 122.515C22.6127 122.515 20.3867 124.741 20.3867 127.483V132.452C20.3867 135.197 22.6127 137.421 25.3554 137.421H45.2304C47.9756 137.421 50.1992 135.197 50.1992 132.452C50.1992 130.855 50.1992 129.083 50.1992 127.483Z" fill="#1C2298"/>
<path fill-rule="evenodd" clip-rule="evenodd" d="M34.8992 58.8202C34.7899 58.1196 34.7377 57.429 34.7402 56.7482C34.7451 55.3793 33.6371 54.2614 32.2657 54.2539C30.8944 54.249 29.7764 55.357 29.7714 56.7284C29.7665 57.6674 29.8385 58.6239 29.9925 59.5928C30.2037 60.9468 31.4782 61.8735 32.8322 61.6598C34.1862 61.4487 35.1128 60.1742 34.8992 58.8202Z" fill="#1C2298"/>
<path fill-rule="evenodd" clip-rule="evenodd" d="M37.5089 49.2981C37.9959 48.7267 38.5424 48.1901 39.1486 47.6883C40.2045 46.8138 40.3536 45.2486 39.4791 44.1903C38.6046 43.1344 37.0394 42.9854 35.9811 43.8599C35.1488 44.548 34.396 45.2908 33.7252 46.0759C32.8358 47.1218 32.9625 48.6895 34.006 49.5789C35.0494 50.4683 36.6195 50.3416 37.5089 49.2981Z" fill="#1C2298"/>
<path fill-rule="evenodd" clip-rule="evenodd" d="M46.8708 44.1029C47.8745 43.8768 48.9328 43.7079 50.0434 43.5961C51.4073 43.4594 52.4035 42.2421 52.2669 40.8782C52.1302 39.5142 50.9129 38.5155 49.549 38.6522C48.2323 38.7838 46.9752 38.9875 45.7827 39.2559C44.4436 39.5565 43.6014 40.8856 43.902 42.2222C44.2026 43.5613 45.5317 44.4035 46.8708 44.1029Z" fill="#1C2298"/>
<path fill-rule="evenodd" clip-rule="evenodd" d="M59.5907 43.5866C61.1062 43.6264 62.5446 43.6139 63.916 43.5568C65.2849 43.4997 66.3507 42.3395 66.2935 40.9706C66.2364 39.6017 65.0787 38.5359 63.7073 38.593C62.4428 38.6452 61.1136 38.6551 59.7174 38.6203C58.346 38.5856 57.2057 39.6712 57.1709 41.0401C57.1361 42.4115 58.2218 43.5518 59.5907 43.5866Z" fill="#1C2298"/>
<path fill-rule="evenodd" clip-rule="evenodd" d="M74.1804 41.999C75.7828 41.5344 77.2287 40.9804 78.5256 40.3593C79.7603 39.7656 80.282 38.2799 79.6883 37.0427C79.0945 35.808 77.6088 35.2862 76.3741 35.88C75.3058 36.3918 74.1158 36.8439 72.7941 37.229C71.4774 37.6116 70.7197 38.9904 71.1023 40.3072C71.4849 41.6239 72.8637 42.3816 74.1804 41.999Z" fill="#1C2298"/>
<path fill-rule="evenodd" clip-rule="evenodd" d="M85.9928 34.2577C87.1803 32.5634 87.9554 30.7572 88.3827 28.9312C88.6958 27.5946 87.8635 26.258 86.5294 25.945C85.1953 25.6345 83.8562 26.4642 83.5456 27.7984C83.255 29.0356 82.7283 30.2579 81.9234 31.4057C81.1383 32.5286 81.4091 34.0789 82.532 34.8664C83.655 35.654 85.2077 35.3807 85.9928 34.2577Z" fill="#1C2298"/>
<path fill-rule="evenodd" clip-rule="evenodd" d="M87.4662 18.9635C86.3656 16.3972 84.6414 14.2358 82.5943 12.8246C81.4639 12.0445 79.9162 12.3303 79.1385 13.4582C78.3585 14.5861 78.6442 16.1363 79.7721 16.9139C81.1012 17.8307 82.1869 19.2592 82.8999 20.9237C83.4415 22.1858 84.9048 22.7696 86.1644 22.228C87.4239 21.6864 88.0078 20.2256 87.4662 18.9635Z" fill="#1C2298"/>
<path fill-rule="evenodd" clip-rule="evenodd" d="M55.6063 11.6296C58.2944 -3.59219 81.5903 -2.60838 68.0281 11.6296H55.6063Z" fill="url(#paint3_linear_91_4471)"/>
<path fill-rule="evenodd" clip-rule="evenodd" d="M55.6063 15.4854C58.2944 30.7046 81.5903 29.7233 68.0281 15.4854H55.6063Z" fill="url(#paint4_linear_91_4471)"/>
<path fill-rule="evenodd" clip-rule="evenodd" d="M55.3829 16.0664H72.0183C73.3896 16.0664 74.5026 14.9534 74.5026 13.582C74.5026 12.2107 73.3896 11.0977 72.0183 11.0977H55.3829C54.014 11.0977 52.8985 12.2107 52.8985 13.582C52.8985 14.9534 54.014 16.0664 55.3829 16.0664Z" fill="#1C2298"/>
<defs>
<linearGradient id="paint0_linear_91_4471" x1="5.66815" y1="55.8164" x2="31.4648" y2="116.626" gradientUnits="userSpaceOnUse">
<stop stop-color="#2B4ABE"/>
<stop offset="1" stop-color="#2EA95F"/>
</linearGradient>
<linearGradient id="paint1_linear_91_4471" x1="55.876" y1="46.0752" x2="76.0761" y2="81.8862" gradientUnits="userSpaceOnUse">
<stop stop-color="#2B4ABE"/>
<stop offset="1" stop-color="#2EA95F"/>
</linearGradient>
<linearGradient id="paint2_linear_91_4471" x1="0.407898" y1="68.2383" x2="122.402" y2="158.527" gradientUnits="userSpaceOnUse">
<stop stop-color="#2B4ABE"/>
<stop offset="1" stop-color="#2EA95F"/>
</linearGradient>
<linearGradient id="paint3_linear_91_4471" x1="55.6063" y1="0.579102" x2="72.8968" y2="14.383" gradientUnits="userSpaceOnUse">
<stop stop-color="#2B4ABE"/>
<stop offset="1" stop-color="#2EA95F"/>
</linearGradient>
<linearGradient id="paint4_linear_91_4471" x1="55.6063" y1="15.4854" x2="72.8956" y2="29.2895" gradientUnits="userSpaceOnUse">
<stop stop-color="#2B4ABE"/>
<stop offset="1" stop-color="#2EA95F"/>
</linearGradient>
</defs>
</svg>
